<mxfile host="app.diagrams.net" agent="Mozilla/5.0 (Macintosh; Intel Mac OS X 10_15_7) AppleWebKit/537.36 (KHTML, like Gecko) Chrome/126.0.0.0 Safari/537.36" version="28.0.9">
  <diagram name="第 1 页" id="nYBT3L-RAv3rfCjHxJny">
    <mxGraphModel dx="1141" dy="556" grid="1" gridSize="10" guides="1" tooltips="1" connect="1" arrows="1" fold="1" page="1" pageScale="1" pageWidth="827" pageHeight="1169" math="0" shadow="0">
      <root>
        <mxCell id="0" />
        <mxCell id="1" parent="0" />
        <mxCell id="EYiuDghIg9F262BSXGEl-6" style="edgeStyle=orthogonalEdgeStyle;curved=1;rounded=0;orthogonalLoop=1;jettySize=auto;html=1;exitX=1;exitY=0.5;exitDx=0;exitDy=0;" edge="1" parent="1" source="EYiuDghIg9F262BSXGEl-3" target="EYiuDghIg9F262BSXGEl-4">
          <mxGeometry relative="1" as="geometry" />
        </mxCell>
        <mxCell id="EYiuDghIg9F262BSXGEl-3" value="TLV62569DBVR" style="rounded=1;whiteSpace=wrap;html=1;" vertex="1" parent="1">
          <mxGeometry x="540" y="257.5" width="120" height="60" as="geometry" />
        </mxCell>
        <mxCell id="EYiuDghIg9F262BSXGEl-12" style="edgeStyle=orthogonalEdgeStyle;curved=1;rounded=0;orthogonalLoop=1;jettySize=auto;html=1;exitX=1;exitY=0.5;exitDx=0;exitDy=0;entryX=0;entryY=0.5;entryDx=0;entryDy=0;" edge="1" parent="1" source="EYiuDghIg9F262BSXGEl-4" target="EYiuDghIg9F262BSXGEl-10">
          <mxGeometry relative="1" as="geometry" />
        </mxCell>
        <mxCell id="EYiuDghIg9F262BSXGEl-15" style="edgeStyle=orthogonalEdgeStyle;curved=1;rounded=0;orthogonalLoop=1;jettySize=auto;html=1;exitX=1;exitY=0.5;exitDx=0;exitDy=0;entryX=0;entryY=0.5;entryDx=0;entryDy=0;strokeColor=#FF00FF;strokeWidth=2;" edge="1" parent="1" source="EYiuDghIg9F262BSXGEl-4" target="EYiuDghIg9F262BSXGEl-14">
          <mxGeometry relative="1" as="geometry" />
        </mxCell>
        <mxCell id="EYiuDghIg9F262BSXGEl-24" value="PWR_C6_CTRL" style="edgeLabel;html=1;align=center;verticalAlign=middle;resizable=0;points=[];fontColor=#00994D;" vertex="1" connectable="0" parent="EYiuDghIg9F262BSXGEl-15">
          <mxGeometry x="0.0436" y="-4" relative="1" as="geometry">
            <mxPoint as="offset" />
          </mxGeometry>
        </mxCell>
        <mxCell id="EYiuDghIg9F262BSXGEl-4" value="VCC_3V3_1/ESP_3V3" style="rounded=1;whiteSpace=wrap;html=1;" vertex="1" parent="1">
          <mxGeometry x="770" y="265" width="130" height="45" as="geometry" />
        </mxCell>
        <mxCell id="EYiuDghIg9F262BSXGEl-8" value="" style="group" vertex="1" connectable="0" parent="1">
          <mxGeometry x="280" y="384" width="90" height="137" as="geometry" />
        </mxCell>
        <mxCell id="EYiuDghIg9F262BSXGEl-7" value="" style="rounded=0;whiteSpace=wrap;html=1;" vertex="1" parent="EYiuDghIg9F262BSXGEl-8">
          <mxGeometry width="90" height="137" as="geometry" />
        </mxCell>
        <mxCell id="EYiuDghIg9F262BSXGEl-1" value="USB-5V" style="rounded=1;whiteSpace=wrap;html=1;" vertex="1" parent="EYiuDghIg9F262BSXGEl-8">
          <mxGeometry x="10" y="7" width="70" height="45" as="geometry" />
        </mxCell>
        <mxCell id="EYiuDghIg9F262BSXGEl-2" value="VBAT" style="rounded=1;whiteSpace=wrap;html=1;" vertex="1" parent="EYiuDghIg9F262BSXGEl-8">
          <mxGeometry x="10" y="87" width="70" height="40" as="geometry" />
        </mxCell>
        <mxCell id="EYiuDghIg9F262BSXGEl-10" value="ESP32P4" style="rounded=1;whiteSpace=wrap;html=1;fillColor=#ffe6cc;strokeColor=#d79b00;" vertex="1" parent="1">
          <mxGeometry x="980" y="230" width="80" height="35" as="geometry" />
        </mxCell>
        <mxCell id="EYiuDghIg9F262BSXGEl-17" style="edgeStyle=orthogonalEdgeStyle;curved=1;rounded=0;orthogonalLoop=1;jettySize=auto;html=1;exitX=1;exitY=0.5;exitDx=0;exitDy=0;entryX=0;entryY=0.5;entryDx=0;entryDy=0;" edge="1" parent="1" source="EYiuDghIg9F262BSXGEl-14" target="EYiuDghIg9F262BSXGEl-16">
          <mxGeometry relative="1" as="geometry" />
        </mxCell>
        <mxCell id="EYiuDghIg9F262BSXGEl-14" value="控制" style="rhombus;whiteSpace=wrap;html=1;fillColor=#e1d5e7;strokeColor=#9673a6;" vertex="1" parent="1">
          <mxGeometry x="980" y="335.5" width="80" height="52" as="geometry" />
        </mxCell>
        <mxCell id="EYiuDghIg9F262BSXGEl-16" value="ESP32C6" style="rounded=1;whiteSpace=wrap;html=1;fillColor=#ffe6cc;strokeColor=#d79b00;" vertex="1" parent="1">
          <mxGeometry x="1100" y="344" width="80" height="35" as="geometry" />
        </mxCell>
        <mxCell id="EYiuDghIg9F262BSXGEl-22" style="edgeStyle=orthogonalEdgeStyle;curved=1;rounded=0;orthogonalLoop=1;jettySize=auto;html=1;exitX=1;exitY=0.5;exitDx=0;exitDy=0;entryX=0;entryY=0.5;entryDx=0;entryDy=0;" edge="1" parent="1" source="EYiuDghIg9F262BSXGEl-19" target="EYiuDghIg9F262BSXGEl-21">
          <mxGeometry relative="1" as="geometry" />
        </mxCell>
        <mxCell id="EYiuDghIg9F262BSXGEl-45" value="&lt;span style=&quot;font-size: 12px; text-wrap: wrap; background-color: rgb(236, 236, 236);&quot;&gt;VCC_3V3_PERI&lt;/span&gt;" style="edgeLabel;html=1;align=center;verticalAlign=middle;resizable=0;points=[];" vertex="1" connectable="0" parent="EYiuDghIg9F262BSXGEl-22">
          <mxGeometry x="0.2042" y="1" relative="1" as="geometry">
            <mxPoint as="offset" />
          </mxGeometry>
        </mxCell>
        <mxCell id="EYiuDghIg9F262BSXGEl-23" style="edgeStyle=orthogonalEdgeStyle;curved=1;rounded=0;orthogonalLoop=1;jettySize=auto;html=1;exitX=0;exitY=0.5;exitDx=0;exitDy=0;startArrow=classic;startFill=1;endArrow=none;endFill=0;strokeColor=#FF00FF;strokeWidth=2;" edge="1" parent="1" source="EYiuDghIg9F262BSXGEl-19">
          <mxGeometry relative="1" as="geometry">
            <mxPoint x="450" y="526" as="targetPoint" />
            <Array as="points">
              <mxPoint x="496" y="499" />
              <mxPoint x="496" y="527" />
              <mxPoint x="450" y="527" />
            </Array>
          </mxGeometry>
        </mxCell>
        <mxCell id="EYiuDghIg9F262BSXGEl-25" value="&lt;span style=&quot;color: rgb(0, 153, 77);&quot;&gt;PWR_PERI_CTR&lt;/span&gt;" style="edgeLabel;html=1;align=center;verticalAlign=middle;resizable=0;points=[];" vertex="1" connectable="0" parent="EYiuDghIg9F262BSXGEl-23">
          <mxGeometry x="0.4059" y="-2" relative="1" as="geometry">
            <mxPoint x="6" y="12" as="offset" />
          </mxGeometry>
        </mxCell>
        <mxCell id="EYiuDghIg9F262BSXGEl-43" style="edgeStyle=orthogonalEdgeStyle;curved=1;rounded=0;orthogonalLoop=1;jettySize=auto;html=1;exitX=1;exitY=0.5;exitDx=0;exitDy=0;entryX=0;entryY=0.5;entryDx=0;entryDy=0;" edge="1" parent="1" source="EYiuDghIg9F262BSXGEl-19" target="EYiuDghIg9F262BSXGEl-29">
          <mxGeometry relative="1" as="geometry" />
        </mxCell>
        <mxCell id="EYiuDghIg9F262BSXGEl-44" value="&lt;span style=&quot;font-size: 12px; text-wrap: wrap; background-color: rgb(236, 236, 236);&quot;&gt;VCC_3V3_PERI&lt;/span&gt;" style="edgeLabel;html=1;align=center;verticalAlign=middle;resizable=0;points=[];" vertex="1" connectable="0" parent="EYiuDghIg9F262BSXGEl-43">
          <mxGeometry x="-0.1595" y="-18" relative="1" as="geometry">
            <mxPoint x="8" y="26" as="offset" />
          </mxGeometry>
        </mxCell>
        <mxCell id="EYiuDghIg9F262BSXGEl-49" style="edgeStyle=orthogonalEdgeStyle;curved=1;rounded=0;orthogonalLoop=1;jettySize=auto;html=1;exitX=1;exitY=0.5;exitDx=0;exitDy=0;entryX=0;entryY=0.5;entryDx=0;entryDy=0;" edge="1" parent="1" source="EYiuDghIg9F262BSXGEl-19" target="EYiuDghIg9F262BSXGEl-47">
          <mxGeometry relative="1" as="geometry" />
        </mxCell>
        <mxCell id="EYiuDghIg9F262BSXGEl-19" value="TLV62569DBVR" style="rounded=1;whiteSpace=wrap;html=1;" vertex="1" parent="1">
          <mxGeometry x="540" y="468.5" width="120" height="60" as="geometry" />
        </mxCell>
        <mxCell id="EYiuDghIg9F262BSXGEl-20" style="edgeStyle=orthogonalEdgeStyle;curved=1;rounded=0;orthogonalLoop=1;jettySize=auto;html=1;exitX=1;exitY=0.5;exitDx=0;exitDy=0;entryX=0;entryY=0.5;entryDx=0;entryDy=0;" edge="1" parent="1" source="EYiuDghIg9F262BSXGEl-7" target="EYiuDghIg9F262BSXGEl-19">
          <mxGeometry relative="1" as="geometry" />
        </mxCell>
        <mxCell id="EYiuDghIg9F262BSXGEl-21" value="Other" style="rounded=1;whiteSpace=wrap;html=1;fillColor=#ffe6cc;strokeColor=#d79b00;" vertex="1" parent="1">
          <mxGeometry x="900" y="476" width="80" height="45" as="geometry" />
        </mxCell>
        <mxCell id="EYiuDghIg9F262BSXGEl-26" style="edgeStyle=orthogonalEdgeStyle;curved=1;rounded=0;orthogonalLoop=1;jettySize=auto;html=1;exitX=1;exitY=0.5;exitDx=0;exitDy=0;entryX=0;entryY=0.5;entryDx=0;entryDy=0;" edge="1" parent="1" source="EYiuDghIg9F262BSXGEl-7" target="EYiuDghIg9F262BSXGEl-3">
          <mxGeometry relative="1" as="geometry" />
        </mxCell>
        <mxCell id="EYiuDghIg9F262BSXGEl-30" style="edgeStyle=orthogonalEdgeStyle;curved=1;rounded=0;orthogonalLoop=1;jettySize=auto;html=1;exitX=1;exitY=0.5;exitDx=0;exitDy=0;entryX=0;entryY=0.5;entryDx=0;entryDy=0;" edge="1" parent="1" source="EYiuDghIg9F262BSXGEl-27" target="EYiuDghIg9F262BSXGEl-29">
          <mxGeometry relative="1" as="geometry" />
        </mxCell>
        <mxCell id="EYiuDghIg9F262BSXGEl-41" value="3.3" style="edgeLabel;html=1;align=center;verticalAlign=middle;resizable=0;points=[];" vertex="1" connectable="0" parent="EYiuDghIg9F262BSXGEl-30">
          <mxGeometry x="-0.325" relative="1" as="geometry">
            <mxPoint as="offset" />
          </mxGeometry>
        </mxCell>
        <mxCell id="EYiuDghIg9F262BSXGEl-27" value="ME6211C33M5G-N" style="rounded=1;whiteSpace=wrap;html=1;" vertex="1" parent="1">
          <mxGeometry x="540" y="566" width="120" height="60" as="geometry" />
        </mxCell>
        <mxCell id="EYiuDghIg9F262BSXGEl-28" style="edgeStyle=orthogonalEdgeStyle;curved=1;rounded=0;orthogonalLoop=1;jettySize=auto;html=1;exitX=1;exitY=0.5;exitDx=0;exitDy=0;entryX=0;entryY=0.5;entryDx=0;entryDy=0;" edge="1" parent="1" source="EYiuDghIg9F262BSXGEl-7" target="EYiuDghIg9F262BSXGEl-27">
          <mxGeometry relative="1" as="geometry" />
        </mxCell>
        <mxCell id="EYiuDghIg9F262BSXGEl-29" value="Camera" style="rounded=1;whiteSpace=wrap;html=1;fillColor=#ffe6cc;strokeColor=#d79b00;" vertex="1" parent="1">
          <mxGeometry x="900" y="578.5" width="80" height="35" as="geometry" />
        </mxCell>
        <mxCell id="EYiuDghIg9F262BSXGEl-33" style="edgeStyle=orthogonalEdgeStyle;curved=1;rounded=0;orthogonalLoop=1;jettySize=auto;html=1;exitX=0;exitY=0.5;exitDx=0;exitDy=0;startArrow=classic;startFill=1;endArrow=none;endFill=0;strokeColor=#FF00FF;strokeWidth=2;" edge="1" parent="1" source="EYiuDghIg9F262BSXGEl-27">
          <mxGeometry relative="1" as="geometry">
            <mxPoint x="450" y="655" as="targetPoint" />
            <mxPoint x="540" y="628" as="sourcePoint" />
            <Array as="points">
              <mxPoint x="496" y="596" />
              <mxPoint x="496" y="656" />
              <mxPoint x="450" y="656" />
            </Array>
          </mxGeometry>
        </mxCell>
        <mxCell id="EYiuDghIg9F262BSXGEl-34" value="&lt;span style=&quot;color: rgb(0, 153, 77);&quot;&gt;PWR_CAM&lt;/span&gt;" style="edgeLabel;html=1;align=center;verticalAlign=middle;resizable=0;points=[];" vertex="1" connectable="0" parent="EYiuDghIg9F262BSXGEl-33">
          <mxGeometry x="0.4059" y="-2" relative="1" as="geometry">
            <mxPoint x="-64" y="2" as="offset" />
          </mxGeometry>
        </mxCell>
        <mxCell id="EYiuDghIg9F262BSXGEl-37" style="edgeStyle=orthogonalEdgeStyle;curved=1;rounded=0;orthogonalLoop=1;jettySize=auto;html=1;exitX=1;exitY=0.5;exitDx=0;exitDy=0;entryX=0;entryY=0.5;entryDx=0;entryDy=0;" edge="1" parent="1" source="EYiuDghIg9F262BSXGEl-35" target="EYiuDghIg9F262BSXGEl-36">
          <mxGeometry relative="1" as="geometry" />
        </mxCell>
        <mxCell id="EYiuDghIg9F262BSXGEl-42" value="CODEC_3V3/ADC_3V3" style="edgeLabel;html=1;align=center;verticalAlign=middle;resizable=0;points=[];" vertex="1" connectable="0" parent="EYiuDghIg9F262BSXGEl-37">
          <mxGeometry x="-0.3897" y="-1" relative="1" as="geometry">
            <mxPoint x="27" y="-1" as="offset" />
          </mxGeometry>
        </mxCell>
        <mxCell id="EYiuDghIg9F262BSXGEl-35" value="ME6211C33M5G-N" style="rounded=1;whiteSpace=wrap;html=1;" vertex="1" parent="1">
          <mxGeometry x="540" y="656" width="120" height="60" as="geometry" />
        </mxCell>
        <mxCell id="EYiuDghIg9F262BSXGEl-36" value="Audio" style="rounded=1;whiteSpace=wrap;html=1;fillColor=#ffe6cc;strokeColor=#d79b00;" vertex="1" parent="1">
          <mxGeometry x="900" y="668.5" width="80" height="35" as="geometry" />
        </mxCell>
        <mxCell id="EYiuDghIg9F262BSXGEl-38" style="edgeStyle=orthogonalEdgeStyle;curved=1;rounded=0;orthogonalLoop=1;jettySize=auto;html=1;exitX=0;exitY=0.5;exitDx=0;exitDy=0;startArrow=classic;startFill=1;endArrow=none;endFill=0;strokeColor=#FF00FF;strokeWidth=2;" edge="1" parent="1" source="EYiuDghIg9F262BSXGEl-35">
          <mxGeometry relative="1" as="geometry">
            <mxPoint x="450" y="745" as="targetPoint" />
            <mxPoint x="540" y="718" as="sourcePoint" />
            <Array as="points">
              <mxPoint x="496" y="686" />
              <mxPoint x="496" y="746" />
              <mxPoint x="450" y="746" />
            </Array>
          </mxGeometry>
        </mxCell>
        <mxCell id="EYiuDghIg9F262BSXGEl-39" value="&lt;span style=&quot;color: rgb(0, 153, 77);&quot;&gt;PWR_AUDIO&lt;/span&gt;" style="edgeLabel;html=1;align=center;verticalAlign=middle;resizable=0;points=[];" vertex="1" connectable="0" parent="EYiuDghIg9F262BSXGEl-38">
          <mxGeometry x="0.4059" y="-2" relative="1" as="geometry">
            <mxPoint x="-64" y="2" as="offset" />
          </mxGeometry>
        </mxCell>
        <mxCell id="EYiuDghIg9F262BSXGEl-40" style="edgeStyle=orthogonalEdgeStyle;curved=1;rounded=0;orthogonalLoop=1;jettySize=auto;html=1;exitX=1;exitY=0.5;exitDx=0;exitDy=0;entryX=0;entryY=0.5;entryDx=0;entryDy=0;" edge="1" parent="1" source="EYiuDghIg9F262BSXGEl-7" target="EYiuDghIg9F262BSXGEl-35">
          <mxGeometry relative="1" as="geometry" />
        </mxCell>
        <mxCell id="EYiuDghIg9F262BSXGEl-47" value="4G" style="rounded=1;whiteSpace=wrap;html=1;fillColor=#ffe6cc;strokeColor=#d79b00;" vertex="1" parent="1">
          <mxGeometry x="900" y="410" width="80" height="35" as="geometry" />
        </mxCell>
        <mxCell id="EYiuDghIg9F262BSXGEl-51" style="edgeStyle=orthogonalEdgeStyle;curved=1;rounded=0;orthogonalLoop=1;jettySize=auto;html=1;exitX=1;exitY=0.5;exitDx=0;exitDy=0;entryX=0;entryY=0.5;entryDx=0;entryDy=0;" edge="1" parent="1" source="EYiuDghIg9F262BSXGEl-48" target="EYiuDghIg9F262BSXGEl-47">
          <mxGeometry relative="1" as="geometry" />
        </mxCell>
        <mxCell id="EYiuDghIg9F262BSXGEl-48" value="FDC6333C" style="rhombus;whiteSpace=wrap;html=1;fillColor=#e1d5e7;strokeColor=#9673a6;" vertex="1" parent="1">
          <mxGeometry x="560" y="384" width="100" height="52" as="geometry" />
        </mxCell>
        <mxCell id="EYiuDghIg9F262BSXGEl-50" style="edgeStyle=orthogonalEdgeStyle;curved=1;rounded=0;orthogonalLoop=1;jettySize=auto;html=1;exitX=1;exitY=0.5;exitDx=0;exitDy=0;entryX=0;entryY=0.5;entryDx=0;entryDy=0;" edge="1" parent="1" source="EYiuDghIg9F262BSXGEl-7" target="EYiuDghIg9F262BSXGEl-48">
          <mxGeometry relative="1" as="geometry" />
        </mxCell>
      </root>
    </mxGraphModel>
  </diagram>
</mxfile>
